# Blender3D v244 OBJ File: thunder.blend
# www.blender3d.org
o buoyant_hull_Cube.003
v 3.000000 2.000000 2.612527
v 3.000000 -0.000000 2.697942
v -3.000000 -0.000000 2.697942
v -3.000000 2.000000 2.612527
v 3.000000 2.000000 -2.945178
v 2.999999 -0.000000 -2.467856
v -3.000000 0.000000 -2.467856
v -3.000000 2.000000 -2.945178
v 3.500000 1.000000 4.106488
v -3.500000 1.000000 4.106488
v 3.500000 1.000000 -4.034104
v -3.500000 1.000000 -4.034104
v -0.000000 -0.413842 3.116045
v 0.000000 2.000000 3.252199
v -0.000001 -0.413842 -2.885958
v 0.000000 2.000000 -3.584850
v 0.000000 1.000000 4.106488
v -0.000000 1.000000 -4.034104
vn 0.191536 -0.618723 -0.761903
vn -0.000000 -0.842857 -0.538138
vn -0.191536 -0.618722 -0.761903
vn 0.000000 0.736541 -0.676392
vn 0.190920 0.402261 -0.895397
vn -0.190920 0.402261 -0.895397
vn -0.189781 -0.563328 0.804142
vn -0.000000 -0.815401 0.578896
vn 0.189781 -0.563328 0.804142
vn 0.000000 0.831015 0.556250
vn -0.160031 0.641168 0.750529
vn 0.160031 0.641168 0.750529
vn 0.000000 1.000000 -0.000000
vn 0.136653 -0.990619 -0.000000
vn -0.894427 0.447214 0.000000
vn -0.894427 -0.447213 0.000000
vn 0.894427 -0.447214 -0.000000
vn 0.894427 -0.447213 -0.000000
vn 0.894427 0.447213 0.000000
vn 0.894427 0.447214 0.000000
vn -0.136653 -0.990619 -0.000000
usemtl (null)
usemtl (null)
s 1
f 18//1 6//1 15//1
f 18//2 11//2 6//2
f 18//3 15//3 7//3
f 12//2 18//2 7//2
f 5//4 11//4 18//4
f 16//5 5//5 18//5
f 8//4 18//4 12//4
f 8//6 16//6 18//6
f 17//7 3//7 13//7
f 17//8 10//8 3//8
f 17//9 13//9 2//9
f 9//8 17//8 2//8
f 4//10 10//10 17//10
f 14//11 4//11 17//11
f 9//10 1//10 17//10
f 17//12 1//12 14//12
f 16//13 14//13 1//13
f 5//13 16//13 1//13
f 13//14 15//14 6//14
f 2//14 13//14 6//14
f 4//15 8//15 12//15
f 10//15 4//15 12//15
f 10//16 12//16 7//16
f 3//16 10//16 7//16
f 9//17 6//17 11//17
f 9//18 2//18 6//18
f 5//19 1//19 11//19
f 11//20 1//20 9//20
f 13//21 3//21 7//21
f 15//21 13//21 7//21
f 16//13 8//13 4//13
f 14//13 16//13 4//13
